<svg width="44" height="44" viewBox="0 0 44 44" fill="none" xmlns="http://www.w3.org/2000/svg">
<path d="M8.62236 0C3.88074 0 0 3.88065 0 8.62236V35.3791C0 40.1207 3.88065 44 8.62236 44H35.3791C40.1207 44 44 40.1207 44 35.3791V8.62236C44 3.88074 40.1207 0 35.3791 0H8.62236ZM10.791 7.26089C13.0645 7.26089 14.4649 8.7534 14.5081 10.7153C14.5081 12.6339 13.0644 14.1683 10.747 14.1683H10.7044C8.47414 14.1683 7.03265 12.634 7.03265 10.7153C7.03265 8.75345 8.51777 7.26089 10.791 7.26089H10.791ZM30.3831 16.4305C34.7555 16.4305 38.0332 19.2883 38.0332 25.4296V36.8944H31.3884V26.1983C31.3884 23.5105 30.4267 21.6767 28.0219 21.6767C26.1862 21.6767 25.0919 22.9127 24.6115 24.1067C24.436 24.5339 24.3929 25.1304 24.3929 25.728V36.8944H17.748C17.748 36.8944 17.8352 18.7755 17.748 16.8994H24.3942V19.7309C25.2773 18.3685 26.8568 16.4305 30.3831 16.4305V16.4305ZM7.42459 16.9009H14.0694V36.8945H7.42459V16.9009Z" fill="black"/>
</svg>
