<svg width="39" height="40" viewBox="0 0 39 40" fill="none" xmlns="http://www.w3.org/2000/svg">
<path d="M19.4948 13.3305C15.9142 13.3305 12.9921 16.3275 12.9921 20C12.9921 23.6725 15.9142 26.6695 19.4948 26.6695C23.0754 26.6695 25.9974 23.6725 25.9974 20C25.9974 16.3275 23.0754 13.3305 19.4948 13.3305ZM38.9978 20C38.9978 17.2381 39.0222 14.5013 38.871 11.7444C38.7198 8.54226 38.0075 5.70034 35.7245 3.35876C33.4367 1.01217 30.6707 0.286681 27.5487 0.131576C24.8559 -0.0235287 22.1875 0.00148823 19.4996 0.00148823C16.8069 0.00148823 14.1385 -0.0235287 11.4506 0.131576C8.32855 0.286681 5.55773 1.01717 3.27473 3.35876C0.986848 5.70534 0.279509 8.54226 0.128284 11.7444C-0.0229401 14.5063 0.00145099 17.2431 0.00145099 20C0.00145099 22.7569 -0.0229401 25.4987 0.128284 28.2556C0.279509 31.4577 0.991727 34.2997 3.27473 36.6412C5.5626 38.9878 8.32855 39.7133 11.4506 39.8684C14.1434 40.0235 16.8117 39.9985 19.4996 39.9985C22.1924 39.9985 24.8608 40.0235 27.5487 39.8684C30.6707 39.7133 33.4415 38.9828 35.7245 36.6412C38.0124 34.2947 38.7198 31.4577 38.871 28.2556C39.0271 25.4987 38.9978 22.7619 38.9978 20ZM19.4948 30.2619C13.958 30.2619 9.48956 25.6788 9.48956 20C9.48956 14.3212 13.958 9.73807 19.4948 9.73807C25.0315 9.73807 29.5 14.3212 29.5 20C29.5 25.6788 25.0315 30.2619 19.4948 30.2619ZM29.9097 11.7144C28.617 11.7144 27.5731 10.6437 27.5731 9.31778C27.5731 7.99189 28.617 6.92116 29.9097 6.92116C31.2025 6.92116 32.2464 7.99189 32.2464 9.31778C32.2468 9.63262 32.1866 9.94445 32.0693 10.2354C31.952 10.5263 31.7799 10.7907 31.5629 11.0133C31.3458 11.236 31.0881 11.4125 30.8044 11.5328C30.5207 11.6531 30.2167 11.7148 29.9097 11.7144Z" fill="black"/>
</svg>
