<svg width="37" height="47" viewBox="0 0 37 47" fill="none" xmlns="http://www.w3.org/2000/svg">
<path d="M35.7377 17.2469C35.8461 14.363 35.9001 11.5349 36.2792 8.65106C36.6584 5.76725 37.0912 2.88383 36.9832 1.20885e-05L34.6553 13.0322C34.0058 17.4688 33.681 21.9606 32.5438 26.3417C31.8399 29.0034 30.8112 31.6656 29.4576 34.05C28.8621 34.9927 28.2125 35.8801 27.4545 36.6565C26.7506 37.3775 25.9386 37.9875 25.0723 38.4865C24.0979 39.0966 23.0692 39.5403 21.9861 39.9283C20.091 40.5383 18.1963 40.9263 16.1929 41.1483C14.5685 41.3147 12.9442 41.3147 11.266 41.3147C10.3456 41.3147 9.37087 41.3147 8.45057 41.37C8.23418 41.37 7.9634 41.4253 7.74663 41.4253C8.61297 40.3715 9.37094 39.2625 10.2373 38.2088C12.1324 35.8244 13.8647 33.3843 15.6513 30.9442C17.5464 28.4488 19.5494 26.0086 21.4985 23.5132C23.4476 21.0178 25.3966 18.5223 27.2917 15.9712C29.0244 13.642 30.6483 11.3129 32.3266 8.92813C33.8965 6.71009 35.3044 4.32528 36.0079 1.66348C35.5748 3.10524 34.9252 4.43629 34.1673 5.71168C32.6513 8.26286 30.7563 10.5919 28.9696 12.9763C27.0745 15.5275 25.0715 18.0229 23.0139 20.4631C18.9534 25.2877 14.7305 30.0015 10.5075 34.6044C9.64117 35.5471 8.72087 36.5456 7.85453 37.4882C7.15059 38.1536 6.44697 38.8193 5.74305 39.4846C5.58066 38.3756 5.47227 37.2108 5.36388 36.1018C5.30988 35.1591 5.30988 34.1606 5.41789 33.218C5.52627 32.1642 5.74267 31.0552 6.01345 30.0568C6.50063 28.1714 7.25858 26.286 8.23331 24.6222C8.99125 23.3468 9.91156 22.2378 10.8863 21.184C14.8928 17.3022 19.8193 14.5294 24.4214 11.4792C25.6125 10.7028 26.8037 9.87118 27.9403 8.98379C29.0775 8.0964 30.1058 7.15374 31.1345 6.15562C33.1376 4.21446 35.0326 2.05178 36.9277 0C33.5711 3.21645 30.2142 6.54362 26.2621 8.98379C21.4984 11.8676 16.3012 14.1414 11.8075 17.6352C10.6165 18.5779 9.4797 19.5764 8.50498 20.6854C7.53064 21.7944 6.71834 23.0698 6.01432 24.401C5.31038 25.732 4.87718 27.1184 4.49839 28.5048C4.11922 29.8912 3.95683 31.333 3.90282 32.775C3.90282 35.2705 4.60677 37.5996 5.36471 39.9287C5.14832 40.095 4.98555 40.3171 4.76915 40.4834C4.17358 41.0381 3.57806 41.5372 2.98251 42.0362C2.65773 42.3135 2.33295 42.5909 2.00818 42.8678C1.6834 43.1452 1.30424 43.3669 0.979414 43.6442C0.492237 44.0879 0.0590744 44.5869 0.00507899 45.308C-0.0489164 46.0291 0.329864 46.6944 1.03384 46.916C1.8458 47.1934 2.87452 46.7497 3.47007 46.0843C3.84924 45.696 4.17401 45.308 4.55278 44.9753C5.41911 44.0879 6.23104 43.2005 7.04344 42.2579C7.36822 42.3689 7.693 42.4795 8.01777 42.5352C8.23417 42.5905 8.45094 42.6463 8.66734 42.7016C10.1292 43.1453 11.5907 43.4779 13.0526 43.6443C15.4888 43.977 18.0875 43.7553 20.4698 43.1453C22.7976 42.5352 25.0175 41.4815 26.9665 40.0398C29.024 38.5424 30.5939 36.4906 31.8934 34.2726C34.8712 29.2256 35.5208 23.1249 35.7376 17.2466L35.7377 17.2469Z" fill="black"/>
</svg>
