<svg width="13" height="13" viewBox="0 0 13 13" fill="none" xmlns="http://www.w3.org/2000/svg">
<path d="M6.5 13C5.60599 13 4.76456 12.8317 3.97573 12.4951C3.18689 12.1586 2.49272 11.6958 1.8932 11.1068C1.30421 10.5073 0.841424 9.81311 0.504854 9.02427C0.168285 8.23544 0 7.39401 0 6.5C0 5.59547 0.168285 4.75405 0.504854 3.97573C0.841424 3.18689 1.30421 2.49798 1.8932 1.90898C2.49272 1.30947 3.18689 0.841424 3.97573 0.504854C4.76456 0.168285 5.60599 0 6.5 0C7.40453 0 8.24595 0.168285 9.02427 0.504854C9.81311 0.841424 10.502 1.30947 11.091 1.90898C11.6905 2.49798 12.1586 3.18689 12.4951 3.97573C12.8317 4.75405 13 5.59547 13 6.5C13 7.39401 12.8317 8.23544 12.4951 9.02427C12.1586 9.81311 11.6905 10.5073 11.091 11.1068C10.502 11.6958 9.81311 12.1586 9.02427 12.4951C8.24595 12.8317 7.40453 13 6.5 13ZM6.5 12.1165C7.27832 12.1165 8.00404 11.9745 8.67718 11.6905C9.36084 11.396 9.96036 10.9911 10.4757 10.4757C10.9911 9.96036 11.3908 9.3661 11.6748 8.69296C11.9693 8.0093 12.1165 7.27832 12.1165 6.5C12.1165 5.72168 11.9693 4.99595 11.6748 4.32282C11.3908 3.63916 10.9911 3.03964 10.4757 2.52427C9.96036 2.0089 9.36084 1.60922 8.67718 1.32524C8.00404 1.03074 7.27832 0.883495 6.5 0.883495C5.72168 0.883495 4.9907 1.03074 4.30704 1.32524C3.6339 1.60922 3.03964 2.0089 2.52427 2.52427C2.0089 3.03964 1.60396 3.63916 1.30947 4.32282C1.02549 4.99595 0.883495 5.72168 0.883495 6.5C0.883495 7.27832 1.02549 8.0093 1.30947 8.69296C1.60396 9.3661 2.0089 9.96036 2.52427 10.4757C3.03964 10.9911 3.6339 11.396 4.30704 11.6905C4.9907 11.9745 5.72168 12.1165 6.5 12.1165ZM6.57888 10.0024C4.94862 10.0024 4.1335 8.82969 4.1335 6.48422C4.1335 4.15979 4.94862 2.99757 6.57888 2.99757C8.21966 2.99757 9.04005 4.15979 9.04005 6.48422C9.04005 8.82969 8.21966 10.0024 6.57888 10.0024ZM6.57888 9.08738C7.48341 9.08738 7.93568 8.21966 7.93568 6.48422C7.93568 4.76982 7.48341 3.91262 6.57888 3.91262C5.68487 3.91262 5.23786 4.77508 5.23786 6.5C5.23786 8.22492 5.68487 9.08738 6.57888 9.08738Z" fill="black"/>
</svg>
